<svg width="483" height="165" fill="none" xmlns="http://www.w3.org/2000/svg"><mask id="a" maskUnits="userSpaceOnUse" x="0" y="31" width="483" height="134"><path fill="url(#paint0_linear)" d="M0 31h483v134H0z"/></mask><g mask="url(#a)"><path d="M-312.555 167.201l63.9 8.033 64.763-78.636 69.229 8.615 50.56 73.755 73.151-47.304 43.78-34.231 29.48-55.75 29.988 15.286 34.027-4.432 33.919 14.759 35.165-25.612 52.582 69.364 57.886-28.14 43.549 14.543 26.116-70.039 38.873-10.759 33.883-45.573" stroke="#BDC5E8" stroke-width="4"/><path fill="url(#paint1_linear)" fill-opacity=".4" d="M-10 73h493v84H-10z"/><path stroke="#1F1F41" stroke-width="4" d="M-27 71h514"/></g><circle r="10" transform="matrix(1 0 0 -1 240 71)" fill="#fff" stroke="#1F1F41" stroke-width="4"/><path d="M269.126 33.024l6.118 6.368c2.12 2.207 1.078 5.88-1.885 6.644l-8.583 2.215c-2.997.774-5.699-2.003-4.844-4.977l2.465-8.583c.851-2.964 4.593-3.89 6.729-1.667zM275 18c0-9.941 8.059-18 18-18h44c9.941 0 18 8.059 18 18s-8.059 18-18 18h-44c-9.941 0-18-8.059-18-18z" fill="#1F1F41"/><path d="M299.463 17.024c1.066 0 1.968.32 2.704.96.736.63 1.104 1.504 1.104 2.624s-.379 2-1.136 2.64c-.758.64-1.686.96-2.784.96-.886 0-1.67-.203-2.352-.608-.683-.416-1.168-1.013-1.456-1.792l1.584-.912c.298 1.013 1.04 1.52 2.224 1.52.629 0 1.13-.16 1.504-.48.384-.33.576-.773.576-1.328s-.187-.992-.56-1.312c-.374-.32-.87-.48-1.488-.48h-3.265l.433-6.016h6.24v1.728h-4.544l-.192 2.496h1.408zm8.686-.464c1.163 0 2.112.357 2.848 1.072.736.704 1.104 1.621 1.104 2.752 0 1.13-.368 2.053-1.104 2.768-.736.704-1.685 1.056-2.848 1.056-1.173 0-2.128-.352-2.864-1.056-.736-.715-1.104-1.637-1.104-2.768 0-.853.224-1.605.672-2.256l3.552-5.328h2.096l-2.56 3.76h.208zm0 5.904c.619 0 1.126-.187 1.52-.56.395-.384.592-.89.592-1.52s-.197-1.13-.592-1.504c-.394-.384-.901-.576-1.52-.576-.629 0-1.141.192-1.536.576-.394.373-.592.875-.592 1.504 0 .63.198 1.136.592 1.52.395.373.907.56 1.536.56zm6.935 1.376a1.157 1.157 0 01-.848.352c-.331 0-.614-.117-.848-.352a1.155 1.155 0 01-.352-.848 1.172 1.172 0 011.2-1.2c.33 0 .613.117.848.352.234.235.352.517.352.848 0 .33-.118.613-.352.848zm8.969-1.216c-.768 1.056-1.845 1.584-3.232 1.584-1.386 0-2.469-.528-3.248-1.584-.768-1.056-1.152-2.464-1.152-4.224 0-1.76.384-3.168 1.152-4.224.779-1.056 1.862-1.584 3.248-1.584 1.387 0 2.464.528 3.232 1.584.779 1.056 1.168 2.464 1.168 4.224 0 1.76-.389 3.168-1.168 4.224zm-3.232-.208c.832 0 1.467-.347 1.904-1.04.438-.693.656-1.685.656-2.976 0-1.29-.218-2.283-.656-2.976-.437-.693-1.072-1.04-1.904-1.04-.821 0-1.456.347-1.904 1.04-.437.693-.656 1.685-.656 2.976 0 1.29.219 2.283.656 2.976.448.693 1.083 1.04 1.904 1.04zm13.31.208c-.768 1.056-1.845 1.584-3.232 1.584-1.386 0-2.469-.528-3.248-1.584-.768-1.056-1.152-2.464-1.152-4.224 0-1.76.384-3.168 1.152-4.224.779-1.056 1.862-1.584 3.248-1.584 1.387 0 2.464.528 3.232 1.584.779 1.056 1.168 2.464 1.168 4.224 0 1.76-.389 3.168-1.168 4.224zm-3.232-.208c.832 0 1.467-.347 1.904-1.04.438-.693.656-1.685.656-2.976 0-1.29-.218-2.283-.656-2.976-.437-.693-1.072-1.04-1.904-1.04-.821 0-1.456.347-1.904 1.04-.437.693-.656 1.685-.656 2.976 0 1.29.219 2.283.656 2.976.448.693 1.083 1.04 1.904 1.04z" fill="#fff"/><defs><linearGradient id="paint0_linear" x1="0" y1="76.073" x2="483" y2="76.073" gradientUnits="userSpaceOnUse"><stop stop-color="#F7F7FF" stop-opacity="0"/><stop offset=".521" stop-color="#F7F7FF"/><stop offset="1" stop-color="#F7F7FF" stop-opacity="0"/></linearGradient><linearGradient id="paint1_linear" x1="236.5" y1="73" x2="236.5" y2="157" gradientUnits="userSpaceOnUse"><stop stop-color="#1F1F41"/><stop offset="1" stop-color="#1F1F41" stop-opacity="0"/></linearGradient></defs></svg>